<svg width="16" height="16" viewBox="0 0 16 16" fill="none" xmlns="http://www.w3.org/2000/svg">
<g clip-path="url(#clip0)">
<path d="M9.53342 8.11944C9.5179 8.10396 9.50558 8.08557 9.49718 8.06532C9.48878 8.04507 9.48445 8.02337 9.48445 8.00144C9.48445 7.97952 9.48878 7.95781 9.49718 7.93757C9.50558 7.91732 9.5179 7.89893 9.53342 7.88344L15.7087 1.70878C15.8963 1.521 16.0015 1.26643 16.0013 1.00107C16.0011 0.735706 15.8955 0.481285 15.7078 0.293777C15.52 0.106269 15.2654 0.00103342 15 0.00122095C14.7347 0.00140849 14.4803 0.107004 14.2927 0.294777L8.11808 6.46678C8.1026 6.4823 8.08421 6.49461 8.06396 6.50302C8.04371 6.51142 8.02201 6.51574 8.00008 6.51574C7.97816 6.51574 7.95645 6.51142 7.93621 6.50302C7.91596 6.49461 7.89757 6.4823 7.88208 6.46678L1.70742 0.294777C1.61457 0.201889 1.50434 0.128197 1.38302 0.0779095C1.26169 0.0276219 1.13165 0.0017233 1.00032 0.00169234C0.735081 0.00162983 0.480681 0.106936 0.293085 0.294444C0.105488 0.481952 6.25399e-05 0.736302 2.78156e-08 1.00154C-6.24843e-05 1.26678 0.105243 1.52118 0.292751 1.70878L6.46675 7.88344C6.48227 7.89893 6.49459 7.91732 6.50299 7.93757C6.51139 7.95781 6.51572 7.97952 6.51572 8.00144C6.51572 8.02337 6.51139 8.04507 6.50299 8.06532C6.49459 8.08557 6.48227 8.10396 6.46675 8.11944L0.292751 14.2948C0.199907 14.3877 0.126267 14.4979 0.0760367 14.6193C0.0258064 14.7406 -3.0925e-05 14.8707 2.78156e-08 15.002C6.25399e-05 15.2673 0.105488 15.5216 0.293085 15.7091C0.385973 15.802 0.496239 15.8756 0.617587 15.9258C0.738934 15.9761 0.868987 16.0019 1.00032 16.0019C1.26556 16.0018 1.51991 15.8964 1.70742 15.7088L7.88208 9.53344C7.89757 9.51792 7.91596 9.50561 7.93621 9.49721C7.95645 9.4888 7.97816 9.48448 8.00008 9.48448C8.02201 9.48448 8.04371 9.4888 8.06396 9.49721C8.08421 9.50561 8.1026 9.51792 8.11808 9.53344L14.2927 15.7088C14.4803 15.8964 14.7346 16.0018 14.9998 16.0019C15.2651 16.0019 15.5195 15.8966 15.7071 15.7091C15.8947 15.5216 16.0001 15.2673 16.0002 15.002C16.0002 14.7368 15.8949 14.4824 15.7074 14.2948L9.53342 8.11944Z" fill="black" fill-opacity="0.87"/>
</g>
<defs>
<clipPath id="clip0">
<rect width="16" height="16" fill="white"/>
</clipPath>
</defs>
</svg>
